<svg width="13" height="5" viewBox="0 0 13 5" fill="none" xmlns="http://www.w3.org/2000/svg">
<path d="M2.82349 0.360508C2.36951 0.323657 1.91451 0.419242 1.51806 0.634751C1.1216 0.85026 0.802158 1.17565 0.601533 1.56834C0.400909 1.96103 0.328452 2.40272 0.393647 2.83559C0.458842 3.26847 0.658651 3.67236 0.966922 3.99442C1.27519 4.31647 1.67756 4.54167 2.12137 4.64055C2.56517 4.73943 3.02974 4.70738 3.45425 4.54859C3.87877 4.3898 4.24346 4.11168 4.50059 3.75062C4.75772 3.38956 4.89532 2.96238 4.89536 2.52501C4.90752 2.25225 4.86356 1.97987 4.76599 1.72343C4.66842 1.467 4.51916 1.23154 4.32674 1.03051C4.13432 0.829491 3.90251 0.666848 3.64457 0.551884C3.38664 0.43692 3.10762 0.371888 2.82349 0.360508ZM10.2376 0.360508C9.78357 0.323657 9.32858 0.419242 8.93212 0.634751C8.53567 0.85026 8.21622 1.17565 8.0156 1.56834C7.81497 1.96103 7.74252 2.40272 7.80771 2.83559C7.87291 3.26847 8.07272 3.67236 8.38099 3.99442C8.68926 4.31647 9.09163 4.54167 9.53543 4.64055C9.97924 4.73943 10.4438 4.70738 10.8683 4.54859C11.2928 4.3898 11.6575 4.11168 11.9147 3.75062C12.1718 3.38956 12.3094 2.96238 12.3094 2.52501C12.3216 2.25225 12.2776 1.97987 12.1801 1.72343C12.0825 1.467 11.9332 1.23154 11.7408 1.03051C11.5484 0.829491 11.3166 0.666848 11.0586 0.551884C10.8007 0.43692 10.5217 0.371888 10.2376 0.360508Z" fill="white"/>
</svg>
